<svg width="46" height="46" viewBox="0 0 46 46" fill="none" xmlns="http://www.w3.org/2000/svg">
<circle cx="23" cy="23" r="23" transform="rotate(-180 23 23)" fill="#EEF0F3"/>
<path fill-rule="evenodd" clip-rule="evenodd" d="M21.8044 18.2993C21.4174 17.9053 20.7842 17.8996 20.3902 18.2866L16.2993 22.2866C16.1078 22.4746 16 22.7317 16 23C16 23.2683 16.1078 23.5254 16.2993 23.7134L20.3902 27.7134C20.7842 28.1004 21.4174 28.0947 21.8044 27.7007C22.1913 27.3067 22.1856 26.6735 21.7916 26.2866L19.4453 24L29 24C29.5523 24 30 23.5523 30 23C30 22.4477 29.5523 22 29 22L19.4453 22L21.7916 19.7134C22.1856 19.3265 22.1913 18.6933 21.8044 18.2993Z" fill="#BBC8D1"/>
</svg>
