<svg width="46" height="46" viewBox="0 0 46 46" fill="none" xmlns="http://www.w3.org/2000/svg">
<circle r="23" transform="matrix(1 0 0 -1 23 23)" fill="#2989D8"/>
<path fill-rule="evenodd" clip-rule="evenodd" d="M24.1956 18.2993C24.5826 17.9053 25.2158 17.8996 25.6098 18.2866L29.7007 22.2866C29.8922 22.4746 30 22.7317 30 23C30 23.2683 29.8922 23.5254 29.7007 23.7134L25.6098 27.7134C25.2158 28.1004 24.5826 28.0947 24.1956 27.7007C23.8087 27.3067 23.8144 26.6735 24.2084 26.2866L26.5547 24L17 24C16.4477 24 16 23.5523 16 23C16 22.4477 16.4477 22 17 22L26.5547 22L24.2084 19.7134C23.8144 19.3265 23.8087 18.6933 24.1956 18.2993Z" fill="white"/>
</svg>
