<svg width="16" height="12" viewBox="0 0 16 12" fill="none" xmlns="http://www.w3.org/2000/svg">
<path d="M14.71 1.2101C14.617 1.11638 14.5064 1.04198 14.3846 0.991213C14.2627 0.940445 14.132 0.914307 14 0.914307C13.868 0.914307 13.7373 0.940445 13.6154 0.991213C13.4936 1.04198 13.383 1.11638 13.29 1.2101L5.84001 8.6701L2.71001 5.5301C2.61349 5.43687 2.49955 5.36355 2.37469 5.31435C2.24984 5.26514 2.11651 5.24101 1.98233 5.24334C1.84815 5.24566 1.71574 5.27438 1.59266 5.32788C1.46959 5.38137 1.35825 5.45858 1.26501 5.55511C1.17177 5.65163 1.09846 5.76557 1.04925 5.89042C1.00005 6.01528 0.97592 6.1486 0.978241 6.28278C0.980563 6.41696 1.00929 6.54937 1.06278 6.67245C1.11628 6.79553 1.19349 6.90687 1.29001 7.0001L5.13001 10.8401C5.22297 10.9338 5.33358 11.0082 5.45543 11.059C5.57729 11.1098 5.708 11.1359 5.84001 11.1359C5.97202 11.1359 6.10273 11.1098 6.22459 11.059C6.34645 11.0082 6.45705 10.9338 6.55001 10.8401L14.71 2.68011C14.8115 2.58646 14.8925 2.47281 14.9479 2.34631C15.0033 2.21981 15.0319 2.08321 15.0319 1.94511C15.0319 1.807 15.0033 1.6704 14.9479 1.5439C14.8925 1.4174 14.8115 1.30375 14.71 1.2101Z" fill="white"/>
</svg>
