<svg width="22" height="22" viewBox="0 0 22 22" fill="none" xmlns="http://www.w3.org/2000/svg">
<circle cx="11" cy="11" r="11" fill="#EEF0F3"/>
<path d="M10.1879 13.5271C10.1777 13.3892 10.1676 13.2463 10.1575 13.0985C10.1575 12.9507 10.1575 12.8276 10.1575 12.7291C10.1575 12.0493 10.2688 11.5172 10.4915 11.133C10.7141 10.7389 11.0835 10.3695 11.5996 10.0246C11.9538 9.77833 12.2271 9.51232 12.4194 9.2266C12.6218 8.94089 12.723 8.60591 12.723 8.22168C12.723 7.69951 12.5408 7.29064 12.1765 6.99507C11.8121 6.68965 11.3466 6.53695 10.7799 6.53695C10.2233 6.53695 9.70715 6.67488 9.2315 6.95074C8.76597 7.2266 8.39658 7.62069 8.12334 8.13301L7 7.57143C7.13156 7.09852 7.36939 6.66995 7.71347 6.28571C8.05756 5.89163 8.49779 5.58128 9.03416 5.35468C9.58065 5.11823 10.2132 5 10.9317 5C11.8121 5 12.5509 5.13793 13.148 5.41379C13.7552 5.68966 14.2157 6.06404 14.5294 6.53695C14.8431 7.00985 15 7.54187 15 8.13301C15 8.76355 14.8583 9.31035 14.575 9.7734C14.3017 10.2365 13.8868 10.6502 13.3302 11.0148C13.0569 11.1921 12.7736 11.3596 12.4801 11.5172C12.1866 11.6749 11.9386 11.8522 11.7362 12.0493C11.544 12.2463 11.4478 12.5025 11.4478 12.8177V12.8621C11.4478 12.9507 11.4478 13.0591 11.4478 13.1872C11.4478 13.3054 11.4529 13.4187 11.463 13.5271H10.1879ZM12.1613 15.7734C12.1613 16.1182 12.0348 16.4089 11.7818 16.6453C11.5389 16.8818 11.2404 17 10.8861 17C10.5319 17 10.2283 16.8818 9.97533 16.6453C9.73245 16.4089 9.61101 16.1182 9.61101 15.7734C9.61101 15.4286 9.73245 15.1379 9.97533 14.9015C10.2283 14.6552 10.5319 14.532 10.8861 14.532C11.2404 14.532 11.5389 14.6552 11.7818 14.9015C12.0348 15.1379 12.1613 15.4286 12.1613 15.7734Z" fill="#BBC8D1"/>
</svg>
