<svg width="8" height="8" viewBox="0 0 8 8" fill="none" xmlns="http://www.w3.org/2000/svg">
<path d="M1.5364 0.263604C1.18492 -0.087868 0.615076 -0.087868 0.263604 0.263604C-0.087868 0.615076 -0.087868 1.18492 0.263604 1.5364L2.72721 4L0.263605 6.4636C-0.0878671 6.81508 -0.0878671 7.38492 0.263605 7.7364C0.615077 8.08787 1.18492 8.08787 1.5364 7.7364L4 5.27279L6.4636 7.7364C6.81508 8.08787 7.38492 8.08787 7.7364 7.7364C8.08787 7.38492 8.08787 6.81508 7.7364 6.4636L5.27279 4L7.7364 1.5364C8.08787 1.18492 8.08787 0.615076 7.7364 0.263604C7.38492 -0.087868 6.81508 -0.087868 6.4636 0.263604L4 2.72721L1.5364 0.263604Z" fill="#BBC8D1"/>
</svg>
